HIERARCHY
ROOT Hips
{
	OFFSET 0.000000 0.000000 0.000000 
	CHANNELS 6 Xposition Yposition Zposition Yrotation Zrotation Xrotation 
	JOINT Lumbar
	{
		OFFSET 0.000000 0.000000 0.000000 
		CHANNELS 3 Zrotation Xrotation Yrotation
		JOINT Neck
		{
			OFFSET 0.000000 0.445665 0.000000 
			CHANNELS 3 Zrotation Xrotation Yrotation
			End Site
			{
				OFFSET 0.000000 0.227535 0.000000 
			}
		}
		JOINT RightShoulder
		{
			OFFSET 0.019635 0.377685 0.194865 
			CHANNELS 3 Zrotation Xrotation Yrotation
			JOINT RightElbow
			{
				OFFSET 0.000000 -0.243375 0.000000 
				CHANNELS 2 Zrotation Yrotation
				JOINT RightWrist
				{
					OFFSET 0.000000 -0.264825 0.000000 
					CHANNELS 2 Zrotation Xrotation
					End Site
					{
						OFFSET 0.006600 -0.176220 0.000990 
					}
				}
			}
		}
		JOINT LeftShoulder
		{
			OFFSET 0.019635 0.377685 -0.194865 
			CHANNELS 3 Zrotation Xrotation Yrotation
			JOINT LeftElbow
			{
				OFFSET 0.000000 -0.243375 0.000000 
				CHANNELS 2 Zrotation Yrotation
				JOINT LeftWrist
				{
					OFFSET 0.000000 -0.264825 0.000000 
					CHANNELS 2 Zrotation Xrotation
					End Site
					{
						OFFSET 0.006600 -0.176220 -0.000990 
					}
				}
			}
		}
	}
	JOINT RightHip
	{
		OFFSET 0.052140 -0.069960 0.075570 
		CHANNELS 3 Zrotation Xrotation Yrotation
		JOINT RightKnee
		{
			OFFSET 0.000000 -0.402270 0.000000 
			CHANNELS 1 Zrotation
			JOINT RightAnkle
			{
				OFFSET 0.000000 -0.404085 0.000000 
				CHANNELS 3 Zrotation Xrotation Yrotation
				End Site
				{
					OFFSET 0.204105 -0.089430 0.008415 
				}
			}
		}
	}
	JOINT LeftHip
	{
		OFFSET 0.052140 -0.069960 -0.075570 
		CHANNELS 3 Zrotation Xrotation Yrotation
		JOINT LeftKnee
		{
			OFFSET 0.000000 -0.402270 0.000000 
			CHANNELS 1 Zrotation
			JOINT LeftAnkle
			{
				OFFSET 0.000000 -0.404085 0.000000 
				CHANNELS 3 Zrotation Xrotation Yrotation
				End Site
				{
					OFFSET 0.204105 -0.089430 -0.008415 
				}
			}
		}
	}
}
MOTION
Frames: 17
Frame Time: 0.02
-0.00156 0.92528 -0.106 185.4868 0 -13.50764 12.34628 11.53844 -8.04153 -17.57709 4.48664 -3.58461 -18.54692 -39.18878 51.34243 80.29026 32.05155 -37.90155 3.09953 25.15022 1.4934 -21.61494 137.62445 -163.80849 -25.95063 22.97555 3.5539 13.92287 -40.62271 -22.77607 -0.22338 0 17.18873 17.61956 -1.46828 13.73348 -51.17833 4.96879 0.53181 -3.68758
-0.00214 0.92513 -0.10649 185.5147 0 -13.50764 12.38072 11.47479 -7.99742 -17.97053 4.52542 -3.55374 -18.20689 -39.19087 51.25289 80.2207 32.21209 -37.73008 3.08052 25.3261 1.63665 -21.58353 137.62446 -163.80875 -25.75219 22.9756 3.56407 13.92287 -40.62271 -22.88182 -0.1849 0 17.18873 17.61188 -1.47058 13.6188 -51.23527 5.03973 0.51895 -3.68669
-0.00287 0.92498 -0.10697 185.51104 0 -13.5041 12.45317 11.41482 -7.93482 -18.38534 4.59322 -3.48493 -17.87267 -39.24535 51.16066 80.1825 32.349 -37.57554 3.06227 25.47392 1.7848 -21.55605 137.62443 -163.80801 -25.54329 22.97547 3.55704 13.92287 -40.6227 -22.97165 -0.14897 1e-05 17.18873 17.58588 -1.5293 13.40385 -51.25224 5.13864 0.54885 -3.59203
-0.00355 0.92484 -0.10743 185.51951 0 -13.50122 12.51263 11.35408 -7.87944 -18.79806 4.65009 -3.43183 -17.53613 -39.28037 51.05768 80.13473 32.49703 -37.40696 3.04472 25.63351 1.93288 -21.52315 137.62447 -163.80908 -25.33301 22.97566 3.55467 13.92287 -40.6227 -23.06342 -0.11221 1e-05 17.18873 17.55894 -1.56922 13.23515 -51.2708 5.23092 0.56898 -3.52381
-0.00419 0.92466 -0.10797 185.53913 0 -13.50192 12.55519 11.28819 -7.8289 -19.18119 4.69515 -3.3879 -17.19404 -39.293 51.00618 80.06587 32.64475 -37.26455 3.02264 25.80056 2.07345 -21.50526 137.62446 -163.80887 -25.15287 22.97562 3.5652 13.92287 -40.6227 -23.17797 -0.07307 1e-05 17.18872 17.57035 -1.57953 13.06642 -51.35963 5.29895 0.54765 -3.52566
-0.00494 0.92456 -0.10835 185.52701 0 -13.49482 12.64166 11.23504 -7.76435 -19.6298 4.77325 -3.31446 -16.86711 -39.36794 50.84548 80.04922 32.78644 -37.07077 3.01053 25.94317 2.23006 -21.45617 137.62434 -163.80553 -24.90265 22.97502 3.54513 13.92287 -40.6227 -23.24135 -0.03995 1e-05 17.18872 17.49817 -1.66653 12.86922 -51.29243 5.42254 0.62439 -3.35517
-0.00594 0.92466 -0.10836 185.43878 0 -13.46279 12.83843 11.20832 -7.66109 -20.2568 4.92751 -3.17263 -16.57366 -39.58183 50.39435 80.16511 32.92274 -36.74418 3.02247 26.03666 2.43149 -21.33136 137.6247 -163.81546 -24.48894 22.97683 3.44244 13.92287 -40.6227 -23.16453 -0.02207 1e-05 17.18872 17.19583 -1.93397 12.6647 -50.80567 5.70546 0.94449 -2.77608
-0.00703 0.92482 -0.10821 185.31858 0 -13.42383 13.07812 11.19579 -7.54543 -20.94796 5.11598 -3.00105 -16.29751 -39.86107 49.83051 80.33324 33.05158 -36.36266 3.04539 26.10382 2.6482 -21.17259 137.62413 -163.8004 -23.99164 22.97405 3.31008 13.92287 -40.6227 -23.03718 -0.01062 1e-05 17.18872 16.81116 -2.27907 12.42783 -50.16358 6.04082 1.36409 -2.02021
-0.00807 0.92495 -0.1081 185.21058 0 -13.39078 13.29918 11.18201 -7.43807 -21.6078 5.29396 -2.84062 -16.01788 -40.12352 49.31267 80.4803 33.18158 -35.99854 3.0649 26.17547 2.85684 -21.02275 137.62439 -163.80522 -23.52494 22.975 3.19273 13.92287 -40.6227 -22.93473 0.00338 1e-05 17.18872 16.4662 -2.60087 12.17353 -49.59081 6.34391 1.75014 -1.31472
-0.00918 0.9251 -0.1081 185.11218 0 -13.34584 13.51829 11.14655 -7.31779 -22.27822 5.45059 -2.69014 -15.71801 -40.33173 48.82079 80.61758 33.32471 -35.66886 3.07615 26.27875 3.07119 -20.90256 137.62578 -163.84725 -23.1228 22.9826 3.06794 13.92287 -40.6227 -22.82361 0.01962 0 17.18872 16.10924 -2.87698 12.04567 -49.01947 6.68404 2.09162 -0.72667
-0.01016 0.92522 -0.10784 184.98557 0 -13.3242 13.75067 11.15939 -7.22301 -22.9407 5.66065 -2.51081 -15.46673 -40.66967 48.24309 80.78672 33.43337 -35.25173 3.10926 26.30899 3.27623 -20.70988 137.62101 -163.71405 -22.52417 22.95825 2.9523 13.92287 -40.6227 -22.71869 0.02878 0 17.18872 15.76003 -3.26228 11.65525 -48.41195 6.95855 2.54504 0.13953
-0.01086 0.92528 -0.10686 184.79822 0 -13.36741 14.0128 11.30358 -7.19062 -23.57246 5.99904 -2.27317 -15.32476 -41.33257 47.49772 81.03531 33.49649 -34.62771 3.18274 26.15522 3.46158 -20.34768 137.62901 -163.92554 -21.78068 22.99721 2.86529 13.92287 -40.6227 -22.6431 0.02796 0 17.18872 15.43575 -3.96173 10.48629 -47.71698 7.04239 3.3164 1.79202
-0.01142 0.92532 -0.10562 184.58236 0 -13.43439 14.28584 11.49547 -7.18646 -24.19247 6.39153 -2.00556 -15.23478 -42.12608 46.66136 81.31313 33.51586 -33.91379 3.28126 25.92734 3.63623 -19.90955 137.62457 -163.83395 -20.78267 22.97964 2.78921 13.92287 -40.6227 -22.57517 0.01885 0 17.18873 15.12604 -4.76241 9.06592 -46.997 7.05675 4.19027 3.70615
-0.01201 0.92536 -0.10451 184.37307 0 -13.49152 14.55142 11.66469 -7.17669 -24.81336 6.76665 -1.74204 -15.13467 -42.87171 45.84027 81.57471 33.52469 -33.22674 3.37948 25.72557 3.80798 -19.49142 137.60738 -163.30877 -19.64022 22.88482 2.7109 13.92287 -40.6227 -22.50445 0.00816 0 17.18873 14.81967 -5.49547 7.80181 -46.30406 7.10168 4.99561 5.46004
-0.01274 0.92541 -0.10336 184.18802 0 -13.54512 14.82943 11.83907 -7.13599 -25.45585 7.114 -1.51578 -14.97876 -43.57394 45.12843 81.85089 33.66382 -32.59579 3.43061 25.55292 4.00867 -19.1331 137.67094 -165.08807 -19.54894 23.20991 2.62046 13.92287 -40.6227 -22.43079 0.0194 0 17.18873 14.46525 -6.32171 6.36033 -45.53507 7.15629 5.89831 7.39568
-0.01315 0.92545 -0.10222 183.94815 0 -13.61091 15.08312 12.01327 -7.16661 -26.04904 7.52971 -1.20759 -14.9505 -44.39327 44.16506 82.10255 33.51861 -31.82866 3.5865 25.30473 4.15185 -18.63294 137.5595 -162.12968 -17.26411 22.66527 2.5577 13.92287 -40.62271 -22.36355 -0.01639 0 17.18873 14.21935 -6.97791 5.22758 -44.92611 7.16906 6.61972 9.01134
-0.01275 0.92547 -0.1012 183.54648 0 -13.71223 15.27034 12.18055 -7.38683 -26.5136 8.13678 -0.65961 -15.26854 -45.5331 42.56323 82.28285 32.62444 -30.69852 4.01687 24.84455 4.09078 -17.75702 137.00153 -145.00899 -8.50547 19.57409 2.57374 13.92287 -40.62271 -22.33104 -0.18487 0 17.18873 14.23764 -7.12992 5.02217 -44.71793 7.12295 6.82866 9.68882
